<svg xmlns="http://www.w3.org/2000/svg" viewBox="0 0 680 440" font-family="'IBM Plex Sans', 'Segoe UI', system-ui, sans-serif">
  <rect width="680" height="440" fill="#ffffff"/>
  <text x="40" y="46" font-size="26" font-weight="700" fill="#15171C">CRT slows down and looks at outcomes</text>
  <text x="40" y="74" font-size="16" fill="#666">Five questions to ask of any system</text>

  <!-- Q1 -->
  <rect x="40" y="104" width="600" height="50" rx="10" fill="#f5f7f9" stroke="#cfd4db" stroke-width="1.5"/>
  <circle cx="68" cy="129" r="10" fill="#DA291C"/>
  <text x="68" y="134" text-anchor="middle" font-size="13" font-weight="700" fill="#ffffff">1</text>
  <text x="96" y="135" font-size="17" font-weight="600" fill="#15171C">Who is seen?</text>

  <!-- Q2 -->
  <rect x="40" y="164" width="600" height="50" rx="10" fill="#f5f7f9" stroke="#cfd4db" stroke-width="1.5"/>
  <circle cx="68" cy="189" r="10" fill="#DA291C"/>
  <text x="68" y="194" text-anchor="middle" font-size="13" font-weight="700" fill="#ffffff">2</text>
  <text x="96" y="195" font-size="17" font-weight="600" fill="#15171C">Who is sorted?</text>

  <!-- Q3 -->
  <rect x="40" y="224" width="600" height="50" rx="10" fill="#f5f7f9" stroke="#cfd4db" stroke-width="1.5"/>
  <circle cx="68" cy="249" r="10" fill="#DA291C"/>
  <text x="68" y="254" text-anchor="middle" font-size="13" font-weight="700" fill="#ffffff">3</text>
  <text x="96" y="255" font-size="17" font-weight="600" fill="#15171C">Who is treated as the default user?</text>

  <!-- Q4 -->
  <rect x="40" y="284" width="600" height="50" rx="10" fill="#f5f7f9" stroke="#cfd4db" stroke-width="1.5"/>
  <circle cx="68" cy="309" r="10" fill="#DA291C"/>
  <text x="68" y="314" text-anchor="middle" font-size="13" font-weight="700" fill="#ffffff">4</text>
  <text x="96" y="315" font-size="17" font-weight="600" fill="#15171C">Who has to prove themselves?</text>

  <!-- Q5 -->
  <rect x="40" y="344" width="600" height="50" rx="10" fill="#DA291C"/>
  <circle cx="68" cy="369" r="10" fill="#ffffff"/>
  <text x="68" y="374" text-anchor="middle" font-size="13" font-weight="700" fill="#DA291C">5</text>
  <text x="96" y="375" font-size="17" font-weight="700" fill="#ffffff">Who carries the cost when the system gets it wrong?</text>
</svg>
